<mxfile host="app.diagrams.net" modified="2023-07-28T08:29:36.357Z" agent="Mozilla/5.0 (Windows NT 10.0; Win64; x64) AppleWebKit/537.36 (KHTML, like Gecko) Chrome/115.0.0.0 Safari/537.36" etag="w3NuJ0j-vtXnHQa5jtS6" version="21.6.5" type="github" pages="3">
  <diagram name="페이지-1" id="uPB26imzpLFsURdlCp0O">
    <mxGraphModel dx="2209" dy="790" grid="1" gridSize="10" guides="1" tooltips="1" connect="1" arrows="1" fold="1" page="1" pageScale="1" pageWidth="827" pageHeight="1169" math="0" shadow="0">
      <root>
        <mxCell id="0" />
        <mxCell id="1" parent="0" />
        <mxCell id="wE5TR2sXNH3Me4mFZl0S-1" value="고객" style="whiteSpace=wrap;html=1;align=center;" parent="1" vertex="1">
          <mxGeometry x="200" y="390" width="160" height="110" as="geometry" />
        </mxCell>
        <mxCell id="wE5TR2sXNH3Me4mFZl0S-2" value="고객명" style="ellipse;whiteSpace=wrap;html=1;align=center;" parent="1" vertex="1">
          <mxGeometry x="-10" y="310" width="140" height="80" as="geometry" />
        </mxCell>
        <mxCell id="wE5TR2sXNH3Me4mFZl0S-3" value="" style="endArrow=none;html=1;rounded=0;" parent="1" source="wE5TR2sXNH3Me4mFZl0S-2" target="wE5TR2sXNH3Me4mFZl0S-1" edge="1">
          <mxGeometry relative="1" as="geometry">
            <mxPoint x="320" y="520" as="sourcePoint" />
            <mxPoint x="480" y="520" as="targetPoint" />
          </mxGeometry>
        </mxCell>
        <mxCell id="wE5TR2sXNH3Me4mFZl0S-4" value="가입일" style="ellipse;whiteSpace=wrap;html=1;align=center;" parent="1" vertex="1">
          <mxGeometry x="-10" y="575" width="100" height="40" as="geometry" />
        </mxCell>
        <mxCell id="wE5TR2sXNH3Me4mFZl0S-5" value="&lt;u&gt;Email주소&lt;/u&gt;" style="ellipse;whiteSpace=wrap;html=1;align=center;" parent="1" vertex="1">
          <mxGeometry x="430" y="430" width="100" height="40" as="geometry" />
        </mxCell>
        <mxCell id="wE5TR2sXNH3Me4mFZl0S-6" value="&lt;font color=&quot;#ff6666&quot;&gt;주소&lt;/font&gt;" style="ellipse;whiteSpace=wrap;html=1;align=center;" parent="1" vertex="1">
          <mxGeometry x="-10" y="470" width="100" height="40" as="geometry" />
        </mxCell>
        <mxCell id="wE5TR2sXNH3Me4mFZl0S-7" value="&lt;font color=&quot;#ff6666&quot;&gt;지역&lt;/font&gt;" style="ellipse;whiteSpace=wrap;html=1;align=center;" parent="1" vertex="1">
          <mxGeometry x="110" y="220" width="100" height="40" as="geometry" />
        </mxCell>
        <mxCell id="wE5TR2sXNH3Me4mFZl0S-8" value="&lt;u&gt;전화번호&lt;/u&gt;" style="ellipse;whiteSpace=wrap;html=1;align=center;" parent="1" vertex="1">
          <mxGeometry x="430" y="230" width="100" height="40" as="geometry" />
        </mxCell>
        <mxCell id="wE5TR2sXNH3Me4mFZl0S-9" value="" style="endArrow=none;html=1;rounded=0;entryX=1;entryY=0.75;entryDx=0;entryDy=0;" parent="1" source="wE5TR2sXNH3Me4mFZl0S-5" target="wE5TR2sXNH3Me4mFZl0S-1" edge="1">
          <mxGeometry relative="1" as="geometry">
            <mxPoint x="277" y="350" as="sourcePoint" />
            <mxPoint x="360" y="404" as="targetPoint" />
            <Array as="points" />
          </mxGeometry>
        </mxCell>
        <mxCell id="wE5TR2sXNH3Me4mFZl0S-10" value="" style="endArrow=none;html=1;rounded=0;exitX=1.02;exitY=0.35;exitDx=0;exitDy=0;exitPerimeter=0;entryX=0;entryY=0.5;entryDx=0;entryDy=0;" parent="1" source="wE5TR2sXNH3Me4mFZl0S-6" target="wE5TR2sXNH3Me4mFZl0S-1" edge="1">
          <mxGeometry relative="1" as="geometry">
            <mxPoint x="287" y="360" as="sourcePoint" />
            <mxPoint x="370" y="414" as="targetPoint" />
          </mxGeometry>
        </mxCell>
        <mxCell id="wE5TR2sXNH3Me4mFZl0S-11" value="" style="endArrow=none;html=1;rounded=0;exitX=0.4;exitY=1;exitDx=0;exitDy=0;entryX=1;entryY=0;entryDx=0;entryDy=0;exitPerimeter=0;" parent="1" source="wE5TR2sXNH3Me4mFZl0S-8" target="wE5TR2sXNH3Me4mFZl0S-1" edge="1">
          <mxGeometry relative="1" as="geometry">
            <mxPoint x="297" y="370" as="sourcePoint" />
            <mxPoint x="380" y="424" as="targetPoint" />
          </mxGeometry>
        </mxCell>
        <mxCell id="wE5TR2sXNH3Me4mFZl0S-12" value="" style="endArrow=none;html=1;rounded=0;exitX=0.5;exitY=1;exitDx=0;exitDy=0;" parent="1" source="wE5TR2sXNH3Me4mFZl0S-7" target="wE5TR2sXNH3Me4mFZl0S-1" edge="1">
          <mxGeometry relative="1" as="geometry">
            <mxPoint x="307" y="380" as="sourcePoint" />
            <mxPoint x="390" y="434" as="targetPoint" />
          </mxGeometry>
        </mxCell>
        <mxCell id="wE5TR2sXNH3Me4mFZl0S-13" value="" style="endArrow=none;html=1;rounded=0;" parent="1" source="wE5TR2sXNH3Me4mFZl0S-4" target="wE5TR2sXNH3Me4mFZl0S-1" edge="1">
          <mxGeometry relative="1" as="geometry">
            <mxPoint x="317" y="390" as="sourcePoint" />
            <mxPoint x="400" y="444" as="targetPoint" />
          </mxGeometry>
        </mxCell>
        <mxCell id="wE5TR2sXNH3Me4mFZl0S-14" value="&lt;u&gt;&lt;font color=&quot;#ff6666&quot;&gt;고객코드&lt;/font&gt;&lt;/u&gt;" style="ellipse;whiteSpace=wrap;html=1;align=center;" parent="1" vertex="1">
          <mxGeometry x="430" y="350" width="100" height="40" as="geometry" />
        </mxCell>
        <mxCell id="wE5TR2sXNH3Me4mFZl0S-15" value="" style="endArrow=none;html=1;rounded=0;exitX=0.33;exitY=1.05;exitDx=0;exitDy=0;entryX=1.006;entryY=0.164;entryDx=0;entryDy=0;exitPerimeter=0;entryPerimeter=0;" parent="1" source="wE5TR2sXNH3Me4mFZl0S-14" target="wE5TR2sXNH3Me4mFZl0S-1" edge="1">
          <mxGeometry relative="1" as="geometry">
            <mxPoint x="280" y="270" as="sourcePoint" />
            <mxPoint x="370" y="400" as="targetPoint" />
          </mxGeometry>
        </mxCell>
        <mxCell id="4mrs-BZdThCJVhQzkyDa-1" value="지역" style="rounded=0;whiteSpace=wrap;html=1;" parent="1" vertex="1">
          <mxGeometry x="260" y="700" width="140" height="110" as="geometry" />
        </mxCell>
        <mxCell id="4mrs-BZdThCJVhQzkyDa-2" value="지역명" style="ellipse;whiteSpace=wrap;html=1;align=center;" parent="1" vertex="1">
          <mxGeometry x="110" y="810" width="100" height="40" as="geometry" />
        </mxCell>
        <mxCell id="4mrs-BZdThCJVhQzkyDa-3" value="&lt;u&gt;&lt;font color=&quot;#ff6666&quot;&gt;지역코드&lt;/font&gt;&lt;/u&gt;" style="ellipse;whiteSpace=wrap;html=1;align=center;" parent="1" vertex="1">
          <mxGeometry x="110" y="695" width="100" height="40" as="geometry" />
        </mxCell>
        <mxCell id="4mrs-BZdThCJVhQzkyDa-5" value="&lt;u&gt;&lt;font color=&quot;#ff6666&quot;&gt;제품코드&lt;/font&gt;&lt;/u&gt;" style="ellipse;whiteSpace=wrap;html=1;align=center;" parent="1" vertex="1">
          <mxGeometry x="1047" y="605" width="100" height="40" as="geometry" />
        </mxCell>
        <mxCell id="4mrs-BZdThCJVhQzkyDa-6" value="" style="endArrow=none;html=1;rounded=0;exitX=1;exitY=0.5;exitDx=0;exitDy=0;entryX=0;entryY=0.5;entryDx=0;entryDy=0;" parent="1" source="4mrs-BZdThCJVhQzkyDa-3" target="4mrs-BZdThCJVhQzkyDa-1" edge="1">
          <mxGeometry width="50" height="50" relative="1" as="geometry">
            <mxPoint x="420" y="650" as="sourcePoint" />
            <mxPoint x="470" y="600" as="targetPoint" />
          </mxGeometry>
        </mxCell>
        <mxCell id="4mrs-BZdThCJVhQzkyDa-7" value="" style="endArrow=none;html=1;rounded=0;exitX=1;exitY=0.25;exitDx=0;exitDy=0;entryX=0;entryY=0.5;entryDx=0;entryDy=0;exitPerimeter=0;" parent="1" target="4mrs-BZdThCJVhQzkyDa-1" edge="1">
          <mxGeometry width="50" height="50" relative="1" as="geometry">
            <mxPoint x="210" y="820" as="sourcePoint" />
            <mxPoint x="260" y="790" as="targetPoint" />
          </mxGeometry>
        </mxCell>
        <mxCell id="4mrs-BZdThCJVhQzkyDa-8" value="제품" style="whiteSpace=wrap;html=1;align=center;" parent="1" vertex="1">
          <mxGeometry x="860" y="460" width="160" height="110" as="geometry" />
        </mxCell>
        <mxCell id="4mrs-BZdThCJVhQzkyDa-10" value="색상" style="ellipse;whiteSpace=wrap;html=1;align=center;" parent="1" vertex="1">
          <mxGeometry x="760" y="380" width="100" height="40" as="geometry" />
        </mxCell>
        <mxCell id="4mrs-BZdThCJVhQzkyDa-11" value="제품명" style="ellipse;whiteSpace=wrap;html=1;align=center;" parent="1" vertex="1">
          <mxGeometry x="870" y="380" width="100" height="40" as="geometry" />
        </mxCell>
        <mxCell id="4mrs-BZdThCJVhQzkyDa-12" value="" style="endArrow=none;html=1;rounded=0;entryX=0.25;entryY=0;entryDx=0;entryDy=0;exitX=0.5;exitY=1;exitDx=0;exitDy=0;" parent="1" source="4mrs-BZdThCJVhQzkyDa-11" target="4mrs-BZdThCJVhQzkyDa-8" edge="1">
          <mxGeometry relative="1" as="geometry">
            <mxPoint x="795" y="238" as="sourcePoint" />
            <mxPoint x="720" y="253" as="targetPoint" />
            <Array as="points" />
          </mxGeometry>
        </mxCell>
        <mxCell id="4mrs-BZdThCJVhQzkyDa-13" value="" style="endArrow=none;html=1;rounded=0;entryX=0.58;entryY=1.025;entryDx=0;entryDy=0;exitX=0;exitY=0;exitDx=0;exitDy=0;entryPerimeter=0;" parent="1" source="4mrs-BZdThCJVhQzkyDa-8" target="4mrs-BZdThCJVhQzkyDa-10" edge="1">
          <mxGeometry relative="1" as="geometry">
            <mxPoint x="805" y="248" as="sourcePoint" />
            <mxPoint x="730" y="263" as="targetPoint" />
            <Array as="points" />
          </mxGeometry>
        </mxCell>
        <mxCell id="4mrs-BZdThCJVhQzkyDa-14" value="" style="endArrow=none;html=1;rounded=0;entryX=0.44;entryY=0.025;entryDx=0;entryDy=0;exitX=1;exitY=1;exitDx=0;exitDy=0;entryPerimeter=0;" parent="1" source="4mrs-BZdThCJVhQzkyDa-8" target="4mrs-BZdThCJVhQzkyDa-5" edge="1">
          <mxGeometry relative="1" as="geometry">
            <mxPoint x="867.5" y="550" as="sourcePoint" />
            <mxPoint x="820" y="560" as="targetPoint" />
            <Array as="points" />
          </mxGeometry>
        </mxCell>
        <mxCell id="4mrs-BZdThCJVhQzkyDa-16" value="" style="endArrow=none;html=1;rounded=0;entryX=0.938;entryY=0.018;entryDx=0;entryDy=0;exitX=0.5;exitY=1;exitDx=0;exitDy=0;entryPerimeter=0;" parent="1" target="4mrs-BZdThCJVhQzkyDa-8" edge="1">
          <mxGeometry relative="1" as="geometry">
            <mxPoint x="1030" y="430" as="sourcePoint" />
            <mxPoint x="910" y="470" as="targetPoint" />
            <Array as="points" />
          </mxGeometry>
        </mxCell>
        <mxCell id="4mrs-BZdThCJVhQzkyDa-17" value="가격" style="ellipse;whiteSpace=wrap;html=1;align=center;" parent="1" vertex="1">
          <mxGeometry x="1047" y="480" width="100" height="40" as="geometry" />
        </mxCell>
        <mxCell id="4mrs-BZdThCJVhQzkyDa-18" value="" style="endArrow=none;html=1;rounded=0;entryX=1.013;entryY=0.445;entryDx=0;entryDy=0;exitX=0;exitY=0.5;exitDx=0;exitDy=0;entryPerimeter=0;" parent="1" source="4mrs-BZdThCJVhQzkyDa-17" target="4mrs-BZdThCJVhQzkyDa-8" edge="1">
          <mxGeometry relative="1" as="geometry">
            <mxPoint x="1040" y="440" as="sourcePoint" />
            <mxPoint x="1020" y="472" as="targetPoint" />
            <Array as="points" />
          </mxGeometry>
        </mxCell>
        <mxCell id="4mrs-BZdThCJVhQzkyDa-20" value="제품색상" style="ellipse;shape=doubleEllipse;whiteSpace=wrap;html=1;" parent="1" vertex="1">
          <mxGeometry x="980" y="370" width="100" height="60" as="geometry" />
        </mxCell>
        <mxCell id="4mrs-BZdThCJVhQzkyDa-21" value="관리" style="html=1;whiteSpace=wrap;aspect=fixed;shape=isoRectangle;" parent="1" vertex="1">
          <mxGeometry x="200" y="550" width="150" height="90" as="geometry" />
        </mxCell>
        <mxCell id="4mrs-BZdThCJVhQzkyDa-22" value="" style="endArrow=none;html=1;rounded=0;entryX=0.456;entryY=1.009;entryDx=0;entryDy=0;entryPerimeter=0;exitX=0.487;exitY=0.056;exitDx=0;exitDy=0;exitPerimeter=0;" parent="1" source="4mrs-BZdThCJVhQzkyDa-21" target="wE5TR2sXNH3Me4mFZl0S-1" edge="1">
          <mxGeometry relative="1" as="geometry">
            <mxPoint x="243.5" y="591" as="sourcePoint" />
            <mxPoint x="316.5" y="510" as="targetPoint" />
          </mxGeometry>
        </mxCell>
        <mxCell id="4mrs-BZdThCJVhQzkyDa-23" value="" style="endArrow=none;html=1;rounded=0;exitX=0.1;exitY=0;exitDx=0;exitDy=0;entryX=0.5;entryY=1.011;entryDx=0;entryDy=0;entryPerimeter=0;exitPerimeter=0;" parent="1" source="4mrs-BZdThCJVhQzkyDa-1" target="4mrs-BZdThCJVhQzkyDa-21" edge="1">
          <mxGeometry relative="1" as="geometry">
            <mxPoint x="177" y="601" as="sourcePoint" />
            <mxPoint x="300" y="650" as="targetPoint" />
            <Array as="points" />
          </mxGeometry>
        </mxCell>
        <mxCell id="4mrs-BZdThCJVhQzkyDa-24" value="구매" style="html=1;whiteSpace=wrap;aspect=fixed;shape=isoRectangle;" parent="1" vertex="1">
          <mxGeometry x="510" y="550" width="150" height="90" as="geometry" />
        </mxCell>
        <mxCell id="4mrs-BZdThCJVhQzkyDa-25" value="" style="endArrow=none;html=1;rounded=0;entryX=1;entryY=1;entryDx=0;entryDy=0;exitX=0.067;exitY=0.5;exitDx=0;exitDy=0;exitPerimeter=0;" parent="1" source="4mrs-BZdThCJVhQzkyDa-24" target="wE5TR2sXNH3Me4mFZl0S-1" edge="1">
          <mxGeometry relative="1" as="geometry">
            <mxPoint x="485" y="594.01" as="sourcePoint" />
            <mxPoint x="370" y="483" as="targetPoint" />
            <Array as="points" />
          </mxGeometry>
        </mxCell>
        <mxCell id="4mrs-BZdThCJVhQzkyDa-26" value="" style="endArrow=none;html=1;rounded=0;entryX=0.98;entryY=0.489;entryDx=0;entryDy=0;entryPerimeter=0;exitX=0;exitY=0.5;exitDx=0;exitDy=0;" parent="1" source="4mrs-BZdThCJVhQzkyDa-8" target="4mrs-BZdThCJVhQzkyDa-24" edge="1">
          <mxGeometry relative="1" as="geometry">
            <mxPoint x="485" y="493" as="sourcePoint" />
            <mxPoint x="662" y="610.99" as="targetPoint" />
            <Array as="points" />
          </mxGeometry>
        </mxCell>
        <mxCell id="4mrs-BZdThCJVhQzkyDa-27" value="" style="endArrow=none;html=1;rounded=0;entryX=0.733;entryY=0.767;entryDx=0;entryDy=0;entryPerimeter=0;" parent="1" target="4mrs-BZdThCJVhQzkyDa-24" edge="1">
          <mxGeometry relative="1" as="geometry">
            <mxPoint x="685" y="700" as="sourcePoint" />
            <mxPoint x="627.0500000000002" y="637" as="targetPoint" />
            <Array as="points" />
          </mxGeometry>
        </mxCell>
        <mxCell id="4mrs-BZdThCJVhQzkyDa-28" value="" style="endArrow=none;html=1;rounded=0;entryX=0.267;entryY=0.778;entryDx=0;entryDy=0;entryPerimeter=0;" parent="1" target="4mrs-BZdThCJVhQzkyDa-24" edge="1">
          <mxGeometry relative="1" as="geometry">
            <mxPoint x="500" y="710" as="sourcePoint" />
            <mxPoint x="519.95" y="620.02" as="targetPoint" />
            <Array as="points" />
          </mxGeometry>
        </mxCell>
        <mxCell id="4mrs-BZdThCJVhQzkyDa-31" value="구매수량" style="ellipse;whiteSpace=wrap;html=1;align=center;" parent="1" vertex="1">
          <mxGeometry x="440" y="710" width="100" height="40" as="geometry" />
        </mxCell>
        <mxCell id="4mrs-BZdThCJVhQzkyDa-32" value="구매일자" style="ellipse;whiteSpace=wrap;html=1;align=center;" parent="1" vertex="1">
          <mxGeometry x="660" y="695" width="100" height="40" as="geometry" />
        </mxCell>
        <mxCell id="4mrs-BZdThCJVhQzkyDa-33" value="Conceptual Data Modeling(ERD)" style="rounded=0;whiteSpace=wrap;html=1;" parent="1" vertex="1">
          <mxGeometry x="340" y="80" width="520" height="60" as="geometry" />
        </mxCell>
        <mxCell id="sO87bag_p0sQIQINF9oQ-1" value="&lt;font color=&quot;#ff9999&quot;&gt;1&lt;/font&gt;" style="text;html=1;align=center;verticalAlign=middle;resizable=0;points=[];autosize=1;strokeColor=none;fillColor=none;" parent="1" vertex="1">
          <mxGeometry x="285" y="640" width="30" height="30" as="geometry" />
        </mxCell>
        <mxCell id="sO87bag_p0sQIQINF9oQ-2" value="&lt;font color=&quot;#ff9999&quot;&gt;N&lt;/font&gt;" style="text;html=1;align=center;verticalAlign=middle;resizable=0;points=[];autosize=1;strokeColor=none;fillColor=none;" parent="1" vertex="1">
          <mxGeometry x="285" y="518" width="30" height="30" as="geometry" />
        </mxCell>
        <mxCell id="tWgzO3Y2KaQV2lbgdqoM-1" value="&lt;font color=&quot;#ff6666&quot;&gt;M&lt;/font&gt;" style="text;html=1;align=center;verticalAlign=middle;resizable=0;points=[];autosize=1;strokeColor=none;fillColor=none;" parent="1" vertex="1">
          <mxGeometry x="475" y="528" width="30" height="30" as="geometry" />
        </mxCell>
        <mxCell id="tWgzO3Y2KaQV2lbgdqoM-2" value="&lt;font color=&quot;#ff6666&quot;&gt;N&lt;/font&gt;" style="text;html=1;align=center;verticalAlign=middle;resizable=0;points=[];autosize=1;strokeColor=none;fillColor=none;" parent="1" vertex="1">
          <mxGeometry x="715" y="528" width="30" height="30" as="geometry" />
        </mxCell>
      </root>
    </mxGraphModel>
  </diagram>
  <diagram id="AoqwJUqX0mw7311Ks1xM" name="페이지-2">
    <mxGraphModel dx="2209" dy="790" grid="1" gridSize="10" guides="1" tooltips="1" connect="1" arrows="1" fold="1" page="1" pageScale="1" pageWidth="827" pageHeight="1169" math="0" shadow="0">
      <root>
        <mxCell id="0" />
        <mxCell id="1" parent="0" />
        <mxCell id="VqJu2izjs_KEC8kutEMS-1" value="&lt;font style=&quot;font-size: 20px;&quot;&gt;Logical Data Modeling(RM)&lt;/font&gt;" style="rounded=0;whiteSpace=wrap;html=1;" parent="1" vertex="1">
          <mxGeometry x="154" y="40" width="520" height="60" as="geometry" />
        </mxCell>
        <mxCell id="-sdB_KFh5rsONDqV5opA-22" value="고객" style="swimlane;childLayout=stackLayout;horizontal=1;startSize=50;horizontalStack=0;rounded=1;fontSize=14;fontStyle=0;strokeWidth=2;resizeParent=0;resizeLast=1;shadow=0;dashed=0;align=center;arcSize=4;whiteSpace=wrap;html=1;" parent="1" vertex="1">
          <mxGeometry x="-257" y="910" width="270" height="190" as="geometry" />
        </mxCell>
        <mxCell id="-sdB_KFh5rsONDqV5opA-23" value="&lt;font style=&quot;font-size: 15px;&quot;&gt;+고객번호(PK)&lt;br&gt;+고객명&lt;br&gt;+전화번호&lt;br&gt;+이메일&lt;br&gt;+주소&lt;br&gt;+&lt;font color=&quot;#ff6666&quot;&gt;지역코드(FK)&lt;/font&gt;&lt;br&gt;+가입일&lt;br&gt;&lt;/font&gt;" style="align=left;strokeColor=none;fillColor=none;spacingLeft=4;fontSize=12;verticalAlign=top;resizable=0;rotatable=0;part=1;html=1;" parent="-sdB_KFh5rsONDqV5opA-22" vertex="1">
          <mxGeometry y="50" width="270" height="140" as="geometry" />
        </mxCell>
        <mxCell id="6uPdMwoHtzh1hp6U8Pj7-6" value="지역" style="swimlane;childLayout=stackLayout;horizontal=1;startSize=50;horizontalStack=0;rounded=1;fontSize=14;fontStyle=0;strokeWidth=2;resizeParent=0;resizeLast=1;shadow=0;dashed=0;align=center;arcSize=4;whiteSpace=wrap;html=1;" parent="1" vertex="1">
          <mxGeometry x="154" y="1200" width="270" height="190" as="geometry" />
        </mxCell>
        <mxCell id="6uPdMwoHtzh1hp6U8Pj7-7" value="&lt;font style=&quot;font-size: 15px;&quot;&gt;+ &lt;font color=&quot;#ff6666&quot;&gt;지역코드(PK)&lt;/font&gt;&lt;br&gt;+ 지역명&lt;br&gt;&lt;/font&gt;" style="align=left;strokeColor=none;fillColor=none;spacingLeft=4;fontSize=12;verticalAlign=top;resizable=0;rotatable=0;part=1;html=1;" parent="6uPdMwoHtzh1hp6U8Pj7-6" vertex="1">
          <mxGeometry y="50" width="270" height="140" as="geometry" />
        </mxCell>
        <mxCell id="bwBKHEQsT661tfOGShpD-1" value="제품" style="swimlane;childLayout=stackLayout;horizontal=1;startSize=50;horizontalStack=0;rounded=1;fontSize=14;fontStyle=0;strokeWidth=2;resizeParent=0;resizeLast=1;shadow=0;dashed=0;align=center;arcSize=4;whiteSpace=wrap;html=1;" parent="1" vertex="1">
          <mxGeometry x="605" y="910" width="270" height="190" as="geometry" />
        </mxCell>
        <mxCell id="bwBKHEQsT661tfOGShpD-2" value="&lt;font style=&quot;font-size: 15px;&quot;&gt;+ &lt;font color=&quot;#ff3333&quot;&gt;제품코드&lt;/font&gt;&lt;font color=&quot;#ff6666&quot;&gt;(PK)&lt;/font&gt;&lt;br&gt;+ 제품명&lt;br&gt;+ 제품구분&lt;br&gt;+ 가격&lt;br&gt;&lt;/font&gt;" style="align=left;strokeColor=none;fillColor=none;spacingLeft=4;fontSize=12;verticalAlign=top;resizable=0;rotatable=0;part=1;html=1;" parent="bwBKHEQsT661tfOGShpD-1" vertex="1">
          <mxGeometry y="50" width="270" height="140" as="geometry" />
        </mxCell>
        <mxCell id="YsG7bRuKJC9yv-HeoTMJ-1" value="고객" style="whiteSpace=wrap;html=1;align=center;" parent="1" vertex="1">
          <mxGeometry x="20" y="380" width="160" height="110" as="geometry" />
        </mxCell>
        <mxCell id="YsG7bRuKJC9yv-HeoTMJ-2" value="고객명" style="ellipse;whiteSpace=wrap;html=1;align=center;" parent="1" vertex="1">
          <mxGeometry x="-190" y="300" width="140" height="80" as="geometry" />
        </mxCell>
        <mxCell id="YsG7bRuKJC9yv-HeoTMJ-3" value="" style="endArrow=none;html=1;rounded=0;" parent="1" source="YsG7bRuKJC9yv-HeoTMJ-2" target="YsG7bRuKJC9yv-HeoTMJ-1" edge="1">
          <mxGeometry relative="1" as="geometry">
            <mxPoint x="140" y="510" as="sourcePoint" />
            <mxPoint x="300" y="510" as="targetPoint" />
          </mxGeometry>
        </mxCell>
        <mxCell id="YsG7bRuKJC9yv-HeoTMJ-4" value="가입일" style="ellipse;whiteSpace=wrap;html=1;align=center;" parent="1" vertex="1">
          <mxGeometry x="-190" y="565" width="100" height="40" as="geometry" />
        </mxCell>
        <mxCell id="YsG7bRuKJC9yv-HeoTMJ-5" value="&lt;u&gt;Email주소&lt;/u&gt;" style="ellipse;whiteSpace=wrap;html=1;align=center;" parent="1" vertex="1">
          <mxGeometry x="250" y="420" width="100" height="40" as="geometry" />
        </mxCell>
        <mxCell id="YsG7bRuKJC9yv-HeoTMJ-6" value="&lt;font color=&quot;#ff6666&quot;&gt;주소&lt;/font&gt;" style="ellipse;whiteSpace=wrap;html=1;align=center;" parent="1" vertex="1">
          <mxGeometry x="-190" y="460" width="100" height="40" as="geometry" />
        </mxCell>
        <mxCell id="YsG7bRuKJC9yv-HeoTMJ-7" value="&lt;font color=&quot;#ff6666&quot;&gt;지역&lt;/font&gt;" style="ellipse;whiteSpace=wrap;html=1;align=center;" parent="1" vertex="1">
          <mxGeometry x="-70" y="210" width="100" height="40" as="geometry" />
        </mxCell>
        <mxCell id="YsG7bRuKJC9yv-HeoTMJ-8" value="&lt;u&gt;전화번호&lt;/u&gt;" style="ellipse;whiteSpace=wrap;html=1;align=center;" parent="1" vertex="1">
          <mxGeometry x="250" y="220" width="100" height="40" as="geometry" />
        </mxCell>
        <mxCell id="YsG7bRuKJC9yv-HeoTMJ-9" value="" style="endArrow=none;html=1;rounded=0;entryX=1;entryY=0.75;entryDx=0;entryDy=0;" parent="1" source="YsG7bRuKJC9yv-HeoTMJ-5" target="YsG7bRuKJC9yv-HeoTMJ-1" edge="1">
          <mxGeometry relative="1" as="geometry">
            <mxPoint x="97" y="340" as="sourcePoint" />
            <mxPoint x="180" y="394" as="targetPoint" />
            <Array as="points" />
          </mxGeometry>
        </mxCell>
        <mxCell id="YsG7bRuKJC9yv-HeoTMJ-10" value="" style="endArrow=none;html=1;rounded=0;exitX=1.02;exitY=0.35;exitDx=0;exitDy=0;exitPerimeter=0;entryX=0;entryY=0.5;entryDx=0;entryDy=0;" parent="1" source="YsG7bRuKJC9yv-HeoTMJ-6" target="YsG7bRuKJC9yv-HeoTMJ-1" edge="1">
          <mxGeometry relative="1" as="geometry">
            <mxPoint x="107" y="350" as="sourcePoint" />
            <mxPoint x="190" y="404" as="targetPoint" />
          </mxGeometry>
        </mxCell>
        <mxCell id="YsG7bRuKJC9yv-HeoTMJ-11" value="" style="endArrow=none;html=1;rounded=0;exitX=0.4;exitY=1;exitDx=0;exitDy=0;entryX=1;entryY=0;entryDx=0;entryDy=0;exitPerimeter=0;" parent="1" source="YsG7bRuKJC9yv-HeoTMJ-8" target="YsG7bRuKJC9yv-HeoTMJ-1" edge="1">
          <mxGeometry relative="1" as="geometry">
            <mxPoint x="117" y="360" as="sourcePoint" />
            <mxPoint x="200" y="414" as="targetPoint" />
          </mxGeometry>
        </mxCell>
        <mxCell id="YsG7bRuKJC9yv-HeoTMJ-12" value="" style="endArrow=none;html=1;rounded=0;exitX=0.5;exitY=1;exitDx=0;exitDy=0;" parent="1" source="YsG7bRuKJC9yv-HeoTMJ-7" target="YsG7bRuKJC9yv-HeoTMJ-1" edge="1">
          <mxGeometry relative="1" as="geometry">
            <mxPoint x="127" y="370" as="sourcePoint" />
            <mxPoint x="210" y="424" as="targetPoint" />
          </mxGeometry>
        </mxCell>
        <mxCell id="YsG7bRuKJC9yv-HeoTMJ-13" value="" style="endArrow=none;html=1;rounded=0;" parent="1" source="YsG7bRuKJC9yv-HeoTMJ-4" target="YsG7bRuKJC9yv-HeoTMJ-1" edge="1">
          <mxGeometry relative="1" as="geometry">
            <mxPoint x="137" y="380" as="sourcePoint" />
            <mxPoint x="220" y="434" as="targetPoint" />
          </mxGeometry>
        </mxCell>
        <mxCell id="YsG7bRuKJC9yv-HeoTMJ-14" value="&lt;u&gt;&lt;font color=&quot;#ff6666&quot;&gt;고객코드&lt;/font&gt;&lt;/u&gt;" style="ellipse;whiteSpace=wrap;html=1;align=center;" parent="1" vertex="1">
          <mxGeometry x="250" y="340" width="100" height="40" as="geometry" />
        </mxCell>
        <mxCell id="YsG7bRuKJC9yv-HeoTMJ-15" value="" style="endArrow=none;html=1;rounded=0;exitX=0.33;exitY=1.05;exitDx=0;exitDy=0;entryX=1.006;entryY=0.164;entryDx=0;entryDy=0;exitPerimeter=0;entryPerimeter=0;" parent="1" source="YsG7bRuKJC9yv-HeoTMJ-14" target="YsG7bRuKJC9yv-HeoTMJ-1" edge="1">
          <mxGeometry relative="1" as="geometry">
            <mxPoint x="100" y="260" as="sourcePoint" />
            <mxPoint x="190" y="390" as="targetPoint" />
          </mxGeometry>
        </mxCell>
        <mxCell id="YsG7bRuKJC9yv-HeoTMJ-16" value="지역" style="rounded=0;whiteSpace=wrap;html=1;" parent="1" vertex="1">
          <mxGeometry x="80" y="690" width="140" height="110" as="geometry" />
        </mxCell>
        <mxCell id="YsG7bRuKJC9yv-HeoTMJ-17" value="지역명" style="ellipse;whiteSpace=wrap;html=1;align=center;" parent="1" vertex="1">
          <mxGeometry x="-70" y="800" width="100" height="40" as="geometry" />
        </mxCell>
        <mxCell id="YsG7bRuKJC9yv-HeoTMJ-18" value="&lt;u&gt;&lt;font color=&quot;#ff6666&quot;&gt;지역코드&lt;/font&gt;&lt;/u&gt;" style="ellipse;whiteSpace=wrap;html=1;align=center;" parent="1" vertex="1">
          <mxGeometry x="-70" y="685" width="100" height="40" as="geometry" />
        </mxCell>
        <mxCell id="YsG7bRuKJC9yv-HeoTMJ-19" value="&lt;u&gt;&lt;font color=&quot;#ff6666&quot;&gt;제품코드&lt;/font&gt;&lt;/u&gt;" style="ellipse;whiteSpace=wrap;html=1;align=center;" parent="1" vertex="1">
          <mxGeometry x="867" y="595" width="100" height="40" as="geometry" />
        </mxCell>
        <mxCell id="YsG7bRuKJC9yv-HeoTMJ-20" value="" style="endArrow=none;html=1;rounded=0;exitX=1;exitY=0.5;exitDx=0;exitDy=0;entryX=0;entryY=0.5;entryDx=0;entryDy=0;" parent="1" source="YsG7bRuKJC9yv-HeoTMJ-18" target="YsG7bRuKJC9yv-HeoTMJ-16" edge="1">
          <mxGeometry width="50" height="50" relative="1" as="geometry">
            <mxPoint x="240" y="640" as="sourcePoint" />
            <mxPoint x="290" y="590" as="targetPoint" />
          </mxGeometry>
        </mxCell>
        <mxCell id="YsG7bRuKJC9yv-HeoTMJ-21" value="" style="endArrow=none;html=1;rounded=0;exitX=1;exitY=0.25;exitDx=0;exitDy=0;entryX=0;entryY=0.5;entryDx=0;entryDy=0;exitPerimeter=0;" parent="1" target="YsG7bRuKJC9yv-HeoTMJ-16" edge="1">
          <mxGeometry width="50" height="50" relative="1" as="geometry">
            <mxPoint x="30" y="810" as="sourcePoint" />
            <mxPoint x="80" y="780" as="targetPoint" />
          </mxGeometry>
        </mxCell>
        <mxCell id="YsG7bRuKJC9yv-HeoTMJ-22" value="제품" style="whiteSpace=wrap;html=1;align=center;" parent="1" vertex="1">
          <mxGeometry x="680" y="450" width="160" height="110" as="geometry" />
        </mxCell>
        <mxCell id="YsG7bRuKJC9yv-HeoTMJ-23" value="색상" style="ellipse;whiteSpace=wrap;html=1;align=center;" parent="1" vertex="1">
          <mxGeometry x="580" y="370" width="100" height="40" as="geometry" />
        </mxCell>
        <mxCell id="YsG7bRuKJC9yv-HeoTMJ-24" value="제품명" style="ellipse;whiteSpace=wrap;html=1;align=center;" parent="1" vertex="1">
          <mxGeometry x="690" y="370" width="100" height="40" as="geometry" />
        </mxCell>
        <mxCell id="YsG7bRuKJC9yv-HeoTMJ-25" value="" style="endArrow=none;html=1;rounded=0;entryX=0.25;entryY=0;entryDx=0;entryDy=0;exitX=0.5;exitY=1;exitDx=0;exitDy=0;" parent="1" source="YsG7bRuKJC9yv-HeoTMJ-24" target="YsG7bRuKJC9yv-HeoTMJ-22" edge="1">
          <mxGeometry relative="1" as="geometry">
            <mxPoint x="615" y="228" as="sourcePoint" />
            <mxPoint x="540" y="243" as="targetPoint" />
            <Array as="points" />
          </mxGeometry>
        </mxCell>
        <mxCell id="YsG7bRuKJC9yv-HeoTMJ-26" value="" style="endArrow=none;html=1;rounded=0;entryX=0.58;entryY=1.025;entryDx=0;entryDy=0;exitX=0;exitY=0;exitDx=0;exitDy=0;entryPerimeter=0;" parent="1" source="YsG7bRuKJC9yv-HeoTMJ-22" target="YsG7bRuKJC9yv-HeoTMJ-23" edge="1">
          <mxGeometry relative="1" as="geometry">
            <mxPoint x="625" y="238" as="sourcePoint" />
            <mxPoint x="550" y="253" as="targetPoint" />
            <Array as="points" />
          </mxGeometry>
        </mxCell>
        <mxCell id="YsG7bRuKJC9yv-HeoTMJ-27" value="" style="endArrow=none;html=1;rounded=0;entryX=0.44;entryY=0.025;entryDx=0;entryDy=0;exitX=1;exitY=1;exitDx=0;exitDy=0;entryPerimeter=0;" parent="1" source="YsG7bRuKJC9yv-HeoTMJ-22" target="YsG7bRuKJC9yv-HeoTMJ-19" edge="1">
          <mxGeometry relative="1" as="geometry">
            <mxPoint x="687.5" y="540" as="sourcePoint" />
            <mxPoint x="640" y="550" as="targetPoint" />
            <Array as="points" />
          </mxGeometry>
        </mxCell>
        <mxCell id="YsG7bRuKJC9yv-HeoTMJ-28" value="" style="endArrow=none;html=1;rounded=0;entryX=0.938;entryY=0.018;entryDx=0;entryDy=0;exitX=0.5;exitY=1;exitDx=0;exitDy=0;entryPerimeter=0;" parent="1" target="YsG7bRuKJC9yv-HeoTMJ-22" edge="1">
          <mxGeometry relative="1" as="geometry">
            <mxPoint x="850" y="420" as="sourcePoint" />
            <mxPoint x="730" y="460" as="targetPoint" />
            <Array as="points" />
          </mxGeometry>
        </mxCell>
        <mxCell id="YsG7bRuKJC9yv-HeoTMJ-29" value="가격" style="ellipse;whiteSpace=wrap;html=1;align=center;" parent="1" vertex="1">
          <mxGeometry x="867" y="470" width="100" height="40" as="geometry" />
        </mxCell>
        <mxCell id="YsG7bRuKJC9yv-HeoTMJ-30" value="" style="endArrow=none;html=1;rounded=0;entryX=1.013;entryY=0.445;entryDx=0;entryDy=0;exitX=0;exitY=0.5;exitDx=0;exitDy=0;entryPerimeter=0;" parent="1" source="YsG7bRuKJC9yv-HeoTMJ-29" target="YsG7bRuKJC9yv-HeoTMJ-22" edge="1">
          <mxGeometry relative="1" as="geometry">
            <mxPoint x="860" y="430" as="sourcePoint" />
            <mxPoint x="840" y="462" as="targetPoint" />
            <Array as="points" />
          </mxGeometry>
        </mxCell>
        <mxCell id="YsG7bRuKJC9yv-HeoTMJ-31" value="제품색상" style="ellipse;shape=doubleEllipse;whiteSpace=wrap;html=1;" parent="1" vertex="1">
          <mxGeometry x="800" y="360" width="100" height="60" as="geometry" />
        </mxCell>
        <mxCell id="YsG7bRuKJC9yv-HeoTMJ-32" value="관리" style="html=1;whiteSpace=wrap;aspect=fixed;shape=isoRectangle;" parent="1" vertex="1">
          <mxGeometry x="20" y="540" width="150" height="90" as="geometry" />
        </mxCell>
        <mxCell id="YsG7bRuKJC9yv-HeoTMJ-33" value="" style="endArrow=none;html=1;rounded=0;entryX=0.456;entryY=1.009;entryDx=0;entryDy=0;entryPerimeter=0;exitX=0.487;exitY=0.056;exitDx=0;exitDy=0;exitPerimeter=0;" parent="1" source="YsG7bRuKJC9yv-HeoTMJ-32" target="YsG7bRuKJC9yv-HeoTMJ-1" edge="1">
          <mxGeometry relative="1" as="geometry">
            <mxPoint x="63.5" y="581" as="sourcePoint" />
            <mxPoint x="136.5" y="500" as="targetPoint" />
          </mxGeometry>
        </mxCell>
        <mxCell id="YsG7bRuKJC9yv-HeoTMJ-34" value="" style="endArrow=none;html=1;rounded=0;exitX=0.1;exitY=0;exitDx=0;exitDy=0;entryX=0.5;entryY=1.011;entryDx=0;entryDy=0;entryPerimeter=0;exitPerimeter=0;" parent="1" source="YsG7bRuKJC9yv-HeoTMJ-16" target="YsG7bRuKJC9yv-HeoTMJ-32" edge="1">
          <mxGeometry relative="1" as="geometry">
            <mxPoint x="-3" y="591" as="sourcePoint" />
            <mxPoint x="120" y="640" as="targetPoint" />
            <Array as="points" />
          </mxGeometry>
        </mxCell>
        <mxCell id="YsG7bRuKJC9yv-HeoTMJ-35" value="구매" style="html=1;whiteSpace=wrap;aspect=fixed;shape=isoRectangle;" parent="1" vertex="1">
          <mxGeometry x="330" y="540" width="150" height="90" as="geometry" />
        </mxCell>
        <mxCell id="YsG7bRuKJC9yv-HeoTMJ-36" value="" style="endArrow=none;html=1;rounded=0;entryX=1;entryY=1;entryDx=0;entryDy=0;exitX=0.02;exitY=0.522;exitDx=0;exitDy=0;exitPerimeter=0;" parent="1" source="YsG7bRuKJC9yv-HeoTMJ-35" target="YsG7bRuKJC9yv-HeoTMJ-1" edge="1">
          <mxGeometry relative="1" as="geometry">
            <mxPoint x="305" y="584.01" as="sourcePoint" />
            <mxPoint x="190" y="473" as="targetPoint" />
            <Array as="points" />
          </mxGeometry>
        </mxCell>
        <mxCell id="YsG7bRuKJC9yv-HeoTMJ-37" value="" style="endArrow=none;html=1;rounded=0;entryX=0.98;entryY=0.489;entryDx=0;entryDy=0;entryPerimeter=0;exitX=0;exitY=0.5;exitDx=0;exitDy=0;" parent="1" source="YsG7bRuKJC9yv-HeoTMJ-22" target="YsG7bRuKJC9yv-HeoTMJ-35" edge="1">
          <mxGeometry relative="1" as="geometry">
            <mxPoint x="305" y="483" as="sourcePoint" />
            <mxPoint x="482" y="600.99" as="targetPoint" />
            <Array as="points" />
          </mxGeometry>
        </mxCell>
        <mxCell id="YsG7bRuKJC9yv-HeoTMJ-38" value="" style="endArrow=none;html=1;rounded=0;entryX=0.733;entryY=0.767;entryDx=0;entryDy=0;entryPerimeter=0;" parent="1" target="YsG7bRuKJC9yv-HeoTMJ-35" edge="1">
          <mxGeometry relative="1" as="geometry">
            <mxPoint x="505" y="690" as="sourcePoint" />
            <mxPoint x="447.0500000000002" y="627" as="targetPoint" />
            <Array as="points" />
          </mxGeometry>
        </mxCell>
        <mxCell id="YsG7bRuKJC9yv-HeoTMJ-39" value="" style="endArrow=none;html=1;rounded=0;entryX=0.267;entryY=0.778;entryDx=0;entryDy=0;entryPerimeter=0;" parent="1" target="YsG7bRuKJC9yv-HeoTMJ-35" edge="1">
          <mxGeometry relative="1" as="geometry">
            <mxPoint x="320" y="700" as="sourcePoint" />
            <mxPoint x="339.95000000000005" y="610.02" as="targetPoint" />
            <Array as="points" />
          </mxGeometry>
        </mxCell>
        <mxCell id="YsG7bRuKJC9yv-HeoTMJ-40" value="구매수량" style="ellipse;whiteSpace=wrap;html=1;align=center;" parent="1" vertex="1">
          <mxGeometry x="260" y="700" width="100" height="40" as="geometry" />
        </mxCell>
        <mxCell id="YsG7bRuKJC9yv-HeoTMJ-41" value="구매일자" style="ellipse;whiteSpace=wrap;html=1;align=center;" parent="1" vertex="1">
          <mxGeometry x="480" y="685" width="100" height="40" as="geometry" />
        </mxCell>
        <mxCell id="YsG7bRuKJC9yv-HeoTMJ-42" value="&lt;font color=&quot;#ff9999&quot;&gt;1&lt;/font&gt;" style="text;html=1;align=center;verticalAlign=middle;resizable=0;points=[];autosize=1;strokeColor=none;fillColor=none;" parent="1" vertex="1">
          <mxGeometry x="105" y="630" width="30" height="30" as="geometry" />
        </mxCell>
        <mxCell id="YsG7bRuKJC9yv-HeoTMJ-43" value="&lt;font color=&quot;#ff9999&quot;&gt;N&lt;/font&gt;" style="text;html=1;align=center;verticalAlign=middle;resizable=0;points=[];autosize=1;strokeColor=none;fillColor=none;" parent="1" vertex="1">
          <mxGeometry x="105" y="508" width="30" height="30" as="geometry" />
        </mxCell>
        <mxCell id="YsG7bRuKJC9yv-HeoTMJ-44" value="&lt;font color=&quot;#ff6666&quot;&gt;M&lt;/font&gt;" style="text;html=1;align=center;verticalAlign=middle;resizable=0;points=[];autosize=1;strokeColor=none;fillColor=none;" parent="1" vertex="1">
          <mxGeometry x="295" y="518" width="30" height="30" as="geometry" />
        </mxCell>
        <mxCell id="YsG7bRuKJC9yv-HeoTMJ-45" value="&lt;font color=&quot;#ff6666&quot;&gt;N&lt;/font&gt;" style="text;html=1;align=center;verticalAlign=middle;resizable=0;points=[];autosize=1;strokeColor=none;fillColor=none;" parent="1" vertex="1">
          <mxGeometry x="535" y="518" width="30" height="30" as="geometry" />
        </mxCell>
        <mxCell id="YsG7bRuKJC9yv-HeoTMJ-49" value="구매" style="swimlane;childLayout=stackLayout;horizontal=1;startSize=50;horizontalStack=0;rounded=1;fontSize=14;fontStyle=0;strokeWidth=2;resizeParent=0;resizeLast=1;shadow=0;dashed=0;align=center;arcSize=4;whiteSpace=wrap;html=1;" parent="1" vertex="1">
          <mxGeometry x="175" y="910" width="270" height="190" as="geometry" />
        </mxCell>
        <mxCell id="YsG7bRuKJC9yv-HeoTMJ-50" value="&lt;font style=&quot;font-size: 15px;&quot;&gt;+ &lt;font color=&quot;#ff3333&quot;&gt;구매코드&lt;/font&gt;&lt;font color=&quot;#ff6666&quot;&gt;(PK)&lt;/font&gt;&lt;br&gt;+ 고객코드(FK)&lt;br&gt;+ 제품코드&lt;br&gt;+ 수량&lt;br&gt;+ 구매일자&lt;br&gt;&lt;/font&gt;" style="align=left;strokeColor=none;fillColor=none;spacingLeft=4;fontSize=12;verticalAlign=top;resizable=0;rotatable=0;part=1;html=1;" parent="YsG7bRuKJC9yv-HeoTMJ-49" vertex="1">
          <mxGeometry y="50" width="270" height="140" as="geometry" />
        </mxCell>
        <mxCell id="YsG7bRuKJC9yv-HeoTMJ-52" value="" style="edgeStyle=entityRelationEdgeStyle;fontSize=12;html=1;endArrow=ERoneToMany;startArrow=ERzeroToMany;rounded=0;entryX=0;entryY=0;entryDx=0;entryDy=0;" parent="1" target="YsG7bRuKJC9yv-HeoTMJ-50" edge="1">
          <mxGeometry width="100" height="100" relative="1" as="geometry">
            <mxPoint x="13" y="1010" as="sourcePoint" />
            <mxPoint x="113" y="910" as="targetPoint" />
          </mxGeometry>
        </mxCell>
        <mxCell id="YsG7bRuKJC9yv-HeoTMJ-55" value="" style="edgeStyle=entityRelationEdgeStyle;fontSize=12;html=1;endArrow=ERmany;startArrow=ERmany;rounded=0;entryX=0;entryY=0.5;entryDx=0;entryDy=0;" parent="1" target="bwBKHEQsT661tfOGShpD-1" edge="1">
          <mxGeometry width="100" height="100" relative="1" as="geometry">
            <mxPoint x="445" y="1030" as="sourcePoint" />
            <mxPoint x="545" y="930" as="targetPoint" />
          </mxGeometry>
        </mxCell>
        <mxCell id="YsG7bRuKJC9yv-HeoTMJ-56" value="" style="edgeStyle=entityRelationEdgeStyle;fontSize=12;html=1;endArrow=ERzeroToOne;endFill=1;rounded=0;" parent="1" edge="1">
          <mxGeometry width="100" height="100" relative="1" as="geometry">
            <mxPoint x="13" y="1080" as="sourcePoint" />
            <mxPoint x="150" y="1280" as="targetPoint" />
          </mxGeometry>
        </mxCell>
      </root>
    </mxGraphModel>
  </diagram>
  <diagram id="ibljoTSjvuZOxOtvm-5D" name="페이지-3">
    <mxGraphModel dx="1626" dy="929" grid="1" gridSize="10" guides="1" tooltips="1" connect="1" arrows="1" fold="1" page="1" pageScale="1" pageWidth="827" pageHeight="1169" math="0" shadow="0">
      <root>
        <mxCell id="0" />
        <mxCell id="1" parent="0" />
        <mxCell id="RbDqWuAa2MB252Rq89p7-1" value="학생" style="rounded=0;whiteSpace=wrap;html=1;" vertex="1" parent="1">
          <mxGeometry x="520" y="480" width="120" height="60" as="geometry" />
        </mxCell>
        <mxCell id="XrI0r-NXsZfglVGF1vpn-5" value="학과" style="rounded=0;whiteSpace=wrap;html=1;" vertex="1" parent="1">
          <mxGeometry x="530" y="120" width="120" height="60" as="geometry" />
        </mxCell>
        <mxCell id="XrI0r-NXsZfglVGF1vpn-6" value="교수" style="rounded=0;whiteSpace=wrap;html=1;" vertex="1" parent="1">
          <mxGeometry x="170" y="125" width="120" height="60" as="geometry" />
        </mxCell>
        <mxCell id="XrI0r-NXsZfglVGF1vpn-7" value="과목" style="rounded=0;whiteSpace=wrap;html=1;" vertex="1" parent="1">
          <mxGeometry x="170" y="470" width="120" height="60" as="geometry" />
        </mxCell>
        <mxCell id="_Saf9lAGoDOqikP1jEev-1" value="" style="endArrow=none;html=1;rounded=0;exitX=1;exitY=0;exitDx=0;exitDy=0;entryX=0;entryY=0.5;entryDx=0;entryDy=0;" edge="1" parent="1" source="RbDqWuAa2MB252Rq89p7-1" target="_Saf9lAGoDOqikP1jEev-2">
          <mxGeometry width="50" height="50" relative="1" as="geometry">
            <mxPoint x="570" y="460" as="sourcePoint" />
            <mxPoint x="570" y="450" as="targetPoint" />
          </mxGeometry>
        </mxCell>
        <mxCell id="_Saf9lAGoDOqikP1jEev-2" value="&lt;u&gt;학번&lt;/u&gt;" style="ellipse;whiteSpace=wrap;html=1;" vertex="1" parent="1">
          <mxGeometry x="690" y="390" width="120" height="50" as="geometry" />
        </mxCell>
        <mxCell id="_Saf9lAGoDOqikP1jEev-3" value="이름" style="ellipse;whiteSpace=wrap;html=1;" vertex="1" parent="1">
          <mxGeometry x="680" y="510" width="120" height="50" as="geometry" />
        </mxCell>
        <mxCell id="_Saf9lAGoDOqikP1jEev-6" value="학과명" style="ellipse;whiteSpace=wrap;html=1;" vertex="1" parent="1">
          <mxGeometry x="707" y="170" width="120" height="50" as="geometry" />
        </mxCell>
        <mxCell id="_Saf9lAGoDOqikP1jEev-7" value="&lt;u&gt;학과코드&lt;/u&gt;" style="ellipse;whiteSpace=wrap;html=1;" vertex="1" parent="1">
          <mxGeometry x="707" y="60" width="120" height="50" as="geometry" />
        </mxCell>
        <mxCell id="_Saf9lAGoDOqikP1jEev-9" value="교수이름" style="ellipse;whiteSpace=wrap;html=1;" vertex="1" parent="1">
          <mxGeometry x="10" y="130" width="120" height="50" as="geometry" />
        </mxCell>
        <mxCell id="_Saf9lAGoDOqikP1jEev-10" value="&lt;u&gt;교수코드&lt;/u&gt;" style="ellipse;whiteSpace=wrap;html=1;" vertex="1" parent="1">
          <mxGeometry x="10" y="20" width="120" height="50" as="geometry" />
        </mxCell>
        <mxCell id="_Saf9lAGoDOqikP1jEev-11" value="" style="endArrow=none;html=1;rounded=0;entryX=0;entryY=0.5;entryDx=0;entryDy=0;" edge="1" parent="1" target="_Saf9lAGoDOqikP1jEev-3">
          <mxGeometry width="50" height="50" relative="1" as="geometry">
            <mxPoint x="640" y="530" as="sourcePoint" />
            <mxPoint x="580" y="430" as="targetPoint" />
          </mxGeometry>
        </mxCell>
        <mxCell id="_Saf9lAGoDOqikP1jEev-14" value="" style="endArrow=none;html=1;rounded=0;exitX=0.183;exitY=0;exitDx=0;exitDy=0;entryX=1;entryY=0.5;entryDx=0;entryDy=0;exitPerimeter=0;" edge="1" parent="1" source="XrI0r-NXsZfglVGF1vpn-6" target="_Saf9lAGoDOqikP1jEev-10">
          <mxGeometry width="50" height="50" relative="1" as="geometry">
            <mxPoint x="270" y="-70" as="sourcePoint" />
            <mxPoint x="270" y="-150" as="targetPoint" />
          </mxGeometry>
        </mxCell>
        <mxCell id="_Saf9lAGoDOqikP1jEev-15" value="" style="endArrow=none;html=1;rounded=0;exitX=0;exitY=0.5;exitDx=0;exitDy=0;" edge="1" parent="1" source="XrI0r-NXsZfglVGF1vpn-6">
          <mxGeometry width="50" height="50" relative="1" as="geometry">
            <mxPoint x="280" y="-60" as="sourcePoint" />
            <mxPoint x="130" y="155" as="targetPoint" />
          </mxGeometry>
        </mxCell>
        <mxCell id="_Saf9lAGoDOqikP1jEev-17" value="" style="endArrow=none;html=1;rounded=0;exitX=1;exitY=0.25;exitDx=0;exitDy=0;" edge="1" parent="1" source="XrI0r-NXsZfglVGF1vpn-5" target="_Saf9lAGoDOqikP1jEev-7">
          <mxGeometry width="50" height="50" relative="1" as="geometry">
            <mxPoint x="300" y="250" as="sourcePoint" />
            <mxPoint x="300" y="170" as="targetPoint" />
          </mxGeometry>
        </mxCell>
        <mxCell id="_Saf9lAGoDOqikP1jEev-18" value="" style="endArrow=none;html=1;rounded=0;exitX=1;exitY=1;exitDx=0;exitDy=0;entryX=0;entryY=0.5;entryDx=0;entryDy=0;" edge="1" parent="1" source="XrI0r-NXsZfglVGF1vpn-5" target="_Saf9lAGoDOqikP1jEev-6">
          <mxGeometry width="50" height="50" relative="1" as="geometry">
            <mxPoint x="310" y="260" as="sourcePoint" />
            <mxPoint x="310" y="180" as="targetPoint" />
          </mxGeometry>
        </mxCell>
        <mxCell id="_Saf9lAGoDOqikP1jEev-19" value="종료일" style="ellipse;whiteSpace=wrap;html=1;" vertex="1" parent="1">
          <mxGeometry x="10" y="475" width="120" height="50" as="geometry" />
        </mxCell>
        <mxCell id="_Saf9lAGoDOqikP1jEev-21" value="시작일" style="ellipse;whiteSpace=wrap;html=1;" vertex="1" parent="1">
          <mxGeometry x="10" y="610" width="120" height="50" as="geometry" />
        </mxCell>
        <mxCell id="_Saf9lAGoDOqikP1jEev-22" value="&lt;u&gt;과목명&lt;/u&gt;" style="ellipse;whiteSpace=wrap;html=1;" vertex="1" parent="1">
          <mxGeometry x="30" y="370" width="120" height="50" as="geometry" />
        </mxCell>
        <mxCell id="_Saf9lAGoDOqikP1jEev-23" value="&lt;u&gt;과목코드&lt;/u&gt;" style="ellipse;whiteSpace=wrap;html=1;" vertex="1" parent="1">
          <mxGeometry x="180" y="620" width="120" height="50" as="geometry" />
        </mxCell>
        <mxCell id="_Saf9lAGoDOqikP1jEev-26" value="" style="endArrow=none;html=1;rounded=0;exitX=0;exitY=0.5;exitDx=0;exitDy=0;entryX=1;entryY=0.5;entryDx=0;entryDy=0;" edge="1" parent="1" source="XrI0r-NXsZfglVGF1vpn-7" target="_Saf9lAGoDOqikP1jEev-19">
          <mxGeometry width="50" height="50" relative="1" as="geometry">
            <mxPoint x="-158" y="465" as="sourcePoint" />
            <mxPoint x="-220" y="385" as="targetPoint" />
          </mxGeometry>
        </mxCell>
        <mxCell id="_Saf9lAGoDOqikP1jEev-27" value="" style="endArrow=none;html=1;rounded=0;exitX=0;exitY=1;exitDx=0;exitDy=0;entryX=0.708;entryY=0.1;entryDx=0;entryDy=0;entryPerimeter=0;" edge="1" parent="1" source="XrI0r-NXsZfglVGF1vpn-7" target="_Saf9lAGoDOqikP1jEev-21">
          <mxGeometry width="50" height="50" relative="1" as="geometry">
            <mxPoint x="-148" y="475" as="sourcePoint" />
            <mxPoint x="-210" y="395" as="targetPoint" />
          </mxGeometry>
        </mxCell>
        <mxCell id="_Saf9lAGoDOqikP1jEev-28" value="" style="endArrow=none;html=1;rounded=0;exitX=0.175;exitY=0;exitDx=0;exitDy=0;entryX=0.5;entryY=1;entryDx=0;entryDy=0;exitPerimeter=0;" edge="1" parent="1" source="XrI0r-NXsZfglVGF1vpn-7" target="_Saf9lAGoDOqikP1jEev-22">
          <mxGeometry width="50" height="50" relative="1" as="geometry">
            <mxPoint x="-138" y="485" as="sourcePoint" />
            <mxPoint x="-200" y="405" as="targetPoint" />
          </mxGeometry>
        </mxCell>
        <mxCell id="_Saf9lAGoDOqikP1jEev-29" value="" style="endArrow=none;html=1;rounded=0;exitX=0.5;exitY=1;exitDx=0;exitDy=0;entryX=0.5;entryY=0;entryDx=0;entryDy=0;" edge="1" parent="1" source="XrI0r-NXsZfglVGF1vpn-7" target="_Saf9lAGoDOqikP1jEev-23">
          <mxGeometry width="50" height="50" relative="1" as="geometry">
            <mxPoint x="-128" y="495" as="sourcePoint" />
            <mxPoint x="-190" y="415" as="targetPoint" />
          </mxGeometry>
        </mxCell>
        <mxCell id="_Saf9lAGoDOqikP1jEev-35" value="강의" style="shape=rhombus;perimeter=rhombusPerimeter;whiteSpace=wrap;html=1;align=center;" vertex="1" parent="1">
          <mxGeometry x="170" y="280" width="120" height="60" as="geometry" />
        </mxCell>
        <mxCell id="_Saf9lAGoDOqikP1jEev-36" value="소속" style="shape=rhombus;perimeter=rhombusPerimeter;whiteSpace=wrap;html=1;align=center;" vertex="1" parent="1">
          <mxGeometry x="530" y="290" width="120" height="60" as="geometry" />
        </mxCell>
        <mxCell id="_Saf9lAGoDOqikP1jEev-37" value="소속" style="shape=rhombus;perimeter=rhombusPerimeter;whiteSpace=wrap;html=1;align=center;" vertex="1" parent="1">
          <mxGeometry x="350" y="120" width="120" height="60" as="geometry" />
        </mxCell>
        <mxCell id="_Saf9lAGoDOqikP1jEev-38" value="수강" style="shape=rhombus;perimeter=rhombusPerimeter;whiteSpace=wrap;html=1;align=center;" vertex="1" parent="1">
          <mxGeometry x="354" y="470" width="120" height="60" as="geometry" />
        </mxCell>
        <mxCell id="_Saf9lAGoDOqikP1jEev-40" value="키" style="ellipse;whiteSpace=wrap;html=1;" vertex="1" parent="1">
          <mxGeometry x="550" y="600" width="120" height="50" as="geometry" />
        </mxCell>
        <mxCell id="_Saf9lAGoDOqikP1jEev-45" value="" style="endArrow=none;html=1;rounded=0;exitX=1;exitY=0.5;exitDx=0;exitDy=0;entryX=0;entryY=0.5;entryDx=0;entryDy=0;" edge="1" parent="1" source="XrI0r-NXsZfglVGF1vpn-6" target="_Saf9lAGoDOqikP1jEev-37">
          <mxGeometry relative="1" as="geometry">
            <mxPoint x="450" y="410" as="sourcePoint" />
            <mxPoint x="610" y="410" as="targetPoint" />
          </mxGeometry>
        </mxCell>
        <mxCell id="_Saf9lAGoDOqikP1jEev-46" value="" style="endArrow=none;html=1;rounded=0;exitX=1;exitY=0.5;exitDx=0;exitDy=0;entryX=0;entryY=0.5;entryDx=0;entryDy=0;" edge="1" parent="1" source="_Saf9lAGoDOqikP1jEev-37" target="XrI0r-NXsZfglVGF1vpn-5">
          <mxGeometry relative="1" as="geometry">
            <mxPoint x="450" y="410" as="sourcePoint" />
            <mxPoint x="610" y="410" as="targetPoint" />
          </mxGeometry>
        </mxCell>
        <mxCell id="_Saf9lAGoDOqikP1jEev-47" value="" style="endArrow=none;html=1;rounded=0;exitX=0.5;exitY=1;exitDx=0;exitDy=0;entryX=0.5;entryY=0;entryDx=0;entryDy=0;" edge="1" parent="1" source="XrI0r-NXsZfglVGF1vpn-6" target="_Saf9lAGoDOqikP1jEev-35">
          <mxGeometry relative="1" as="geometry">
            <mxPoint x="450" y="410" as="sourcePoint" />
            <mxPoint x="610" y="410" as="targetPoint" />
          </mxGeometry>
        </mxCell>
        <mxCell id="_Saf9lAGoDOqikP1jEev-48" value="" style="endArrow=none;html=1;rounded=0;exitX=0.5;exitY=1;exitDx=0;exitDy=0;entryX=0.5;entryY=0;entryDx=0;entryDy=0;" edge="1" parent="1" source="_Saf9lAGoDOqikP1jEev-35" target="XrI0r-NXsZfglVGF1vpn-7">
          <mxGeometry relative="1" as="geometry">
            <mxPoint x="450" y="410" as="sourcePoint" />
            <mxPoint x="610" y="410" as="targetPoint" />
          </mxGeometry>
        </mxCell>
        <mxCell id="_Saf9lAGoDOqikP1jEev-49" value="" style="endArrow=none;html=1;rounded=0;exitX=1;exitY=0.5;exitDx=0;exitDy=0;entryX=0;entryY=0.5;entryDx=0;entryDy=0;" edge="1" parent="1" source="XrI0r-NXsZfglVGF1vpn-7" target="_Saf9lAGoDOqikP1jEev-38">
          <mxGeometry relative="1" as="geometry">
            <mxPoint x="450" y="410" as="sourcePoint" />
            <mxPoint x="610" y="410" as="targetPoint" />
          </mxGeometry>
        </mxCell>
        <mxCell id="_Saf9lAGoDOqikP1jEev-50" value="" style="endArrow=none;html=1;rounded=0;exitX=1;exitY=0.5;exitDx=0;exitDy=0;entryX=0.025;entryY=0.4;entryDx=0;entryDy=0;entryPerimeter=0;" edge="1" parent="1" source="_Saf9lAGoDOqikP1jEev-38" target="RbDqWuAa2MB252Rq89p7-1">
          <mxGeometry relative="1" as="geometry">
            <mxPoint x="450" y="410" as="sourcePoint" />
            <mxPoint x="610" y="410" as="targetPoint" />
          </mxGeometry>
        </mxCell>
        <mxCell id="_Saf9lAGoDOqikP1jEev-51" value="" style="endArrow=none;html=1;rounded=0;exitX=0.75;exitY=1;exitDx=0;exitDy=0;entryX=0.5;entryY=0;entryDx=0;entryDy=0;" edge="1" parent="1" source="RbDqWuAa2MB252Rq89p7-1" target="_Saf9lAGoDOqikP1jEev-40">
          <mxGeometry relative="1" as="geometry">
            <mxPoint x="450" y="410" as="sourcePoint" />
            <mxPoint x="610" y="410" as="targetPoint" />
          </mxGeometry>
        </mxCell>
        <mxCell id="_Saf9lAGoDOqikP1jEev-52" value="" style="endArrow=none;html=1;rounded=0;entryX=0.5;entryY=0;entryDx=0;entryDy=0;exitX=0.5;exitY=1;exitDx=0;exitDy=0;" edge="1" parent="1" source="_Saf9lAGoDOqikP1jEev-36" target="RbDqWuAa2MB252Rq89p7-1">
          <mxGeometry relative="1" as="geometry">
            <mxPoint x="450" y="410" as="sourcePoint" />
            <mxPoint x="610" y="410" as="targetPoint" />
          </mxGeometry>
        </mxCell>
        <mxCell id="_Saf9lAGoDOqikP1jEev-53" value="" style="endArrow=none;html=1;rounded=0;exitX=0.5;exitY=1;exitDx=0;exitDy=0;entryX=0.5;entryY=0;entryDx=0;entryDy=0;" edge="1" parent="1" source="XrI0r-NXsZfglVGF1vpn-5" target="_Saf9lAGoDOqikP1jEev-36">
          <mxGeometry relative="1" as="geometry">
            <mxPoint x="450" y="410" as="sourcePoint" />
            <mxPoint x="610" y="410" as="targetPoint" />
          </mxGeometry>
        </mxCell>
        <mxCell id="_Saf9lAGoDOqikP1jEev-54" value="N" style="text;html=1;align=center;verticalAlign=middle;resizable=0;points=[];autosize=1;strokeColor=none;fillColor=none;" vertex="1" parent="1">
          <mxGeometry x="345" y="108" width="30" height="30" as="geometry" />
        </mxCell>
        <mxCell id="_Saf9lAGoDOqikP1jEev-55" value="1" style="text;html=1;align=center;verticalAlign=middle;resizable=0;points=[];autosize=1;strokeColor=none;fillColor=none;" vertex="1" parent="1">
          <mxGeometry x="460" y="110" width="30" height="30" as="geometry" />
        </mxCell>
        <mxCell id="_Saf9lAGoDOqikP1jEev-56" value="N" style="text;html=1;align=center;verticalAlign=middle;resizable=0;points=[];autosize=1;strokeColor=none;fillColor=none;" vertex="1" parent="1">
          <mxGeometry x="240" y="340" width="30" height="30" as="geometry" />
        </mxCell>
        <mxCell id="_Saf9lAGoDOqikP1jEev-57" value="1" style="text;html=1;align=center;verticalAlign=middle;resizable=0;points=[];autosize=1;strokeColor=none;fillColor=none;" vertex="1" parent="1">
          <mxGeometry x="240" y="250" width="30" height="30" as="geometry" />
        </mxCell>
        <mxCell id="_Saf9lAGoDOqikP1jEev-58" value="m" style="text;html=1;align=center;verticalAlign=middle;resizable=0;points=[];autosize=1;strokeColor=none;fillColor=none;" vertex="1" parent="1">
          <mxGeometry x="330" y="470" width="30" height="30" as="geometry" />
        </mxCell>
        <mxCell id="_Saf9lAGoDOqikP1jEev-59" value="N" style="text;html=1;align=center;verticalAlign=middle;resizable=0;points=[];autosize=1;strokeColor=none;fillColor=none;" vertex="1" parent="1">
          <mxGeometry x="450" y="470" width="30" height="30" as="geometry" />
        </mxCell>
        <mxCell id="_Saf9lAGoDOqikP1jEev-60" value="N" style="text;html=1;align=center;verticalAlign=middle;resizable=0;points=[];autosize=1;strokeColor=none;fillColor=none;" vertex="1" parent="1">
          <mxGeometry x="595" y="350" width="30" height="30" as="geometry" />
        </mxCell>
        <mxCell id="_Saf9lAGoDOqikP1jEev-61" value="1" style="text;html=1;align=center;verticalAlign=middle;resizable=0;points=[];autosize=1;strokeColor=none;fillColor=none;" vertex="1" parent="1">
          <mxGeometry x="595" y="250" width="30" height="30" as="geometry" />
        </mxCell>
        <mxCell id="_Saf9lAGoDOqikP1jEev-64" value="학과" style="swimlane;childLayout=stackLayout;horizontal=1;startSize=50;horizontalStack=0;rounded=1;fontSize=14;fontStyle=0;strokeWidth=2;resizeParent=0;resizeLast=1;shadow=0;dashed=0;align=center;arcSize=4;whiteSpace=wrap;html=1;" vertex="1" parent="1">
          <mxGeometry x="1280" y="40" width="160" height="120" as="geometry" />
        </mxCell>
        <mxCell id="_Saf9lAGoDOqikP1jEev-65" value="학과코드(PK)&lt;br&gt;학과명&lt;br&gt;" style="align=left;strokeColor=none;fillColor=none;spacingLeft=4;fontSize=12;verticalAlign=top;resizable=0;rotatable=0;part=1;html=1;" vertex="1" parent="_Saf9lAGoDOqikP1jEev-64">
          <mxGeometry y="50" width="160" height="70" as="geometry" />
        </mxCell>
        <mxCell id="_Saf9lAGoDOqikP1jEev-67" value="과목" style="swimlane;childLayout=stackLayout;horizontal=1;startSize=50;horizontalStack=0;rounded=1;fontSize=14;fontStyle=0;strokeWidth=2;resizeParent=0;resizeLast=1;shadow=0;dashed=0;align=center;arcSize=4;whiteSpace=wrap;html=1;" vertex="1" parent="1">
          <mxGeometry x="840" y="160" width="160" height="150" as="geometry" />
        </mxCell>
        <mxCell id="_Saf9lAGoDOqikP1jEev-68" value="과목코드(PK)&lt;br&gt;과목명&lt;br&gt;시작일&lt;br&gt;종료일&lt;br&gt;&lt;font color=&quot;#ff6666&quot;&gt;교수코드(FK)&lt;/font&gt;" style="align=left;strokeColor=none;fillColor=none;spacingLeft=4;fontSize=12;verticalAlign=top;resizable=0;rotatable=0;part=1;html=1;" vertex="1" parent="_Saf9lAGoDOqikP1jEev-67">
          <mxGeometry y="50" width="160" height="100" as="geometry" />
        </mxCell>
        <mxCell id="_Saf9lAGoDOqikP1jEev-69" value="학생" style="swimlane;childLayout=stackLayout;horizontal=1;startSize=50;horizontalStack=0;rounded=1;fontSize=14;fontStyle=0;strokeWidth=2;resizeParent=0;resizeLast=1;shadow=0;dashed=0;align=center;arcSize=4;whiteSpace=wrap;html=1;" vertex="1" parent="1">
          <mxGeometry x="1280" y="290" width="160" height="120" as="geometry" />
        </mxCell>
        <mxCell id="_Saf9lAGoDOqikP1jEev-70" value="학번(PK)&lt;br&gt;이름&lt;br&gt;키&lt;br&gt;&lt;font color=&quot;#ff6666&quot;&gt;학과코드(FK)&lt;/font&gt;" style="align=left;strokeColor=none;fillColor=none;spacingLeft=4;fontSize=12;verticalAlign=top;resizable=0;rotatable=0;part=1;html=1;" vertex="1" parent="_Saf9lAGoDOqikP1jEev-69">
          <mxGeometry y="50" width="160" height="70" as="geometry" />
        </mxCell>
        <mxCell id="_Saf9lAGoDOqikP1jEev-71" value="수강" style="swimlane;childLayout=stackLayout;horizontal=1;startSize=50;horizontalStack=0;rounded=1;fontSize=14;fontStyle=0;strokeWidth=2;resizeParent=0;resizeLast=1;shadow=0;dashed=0;align=center;arcSize=4;whiteSpace=wrap;html=1;" vertex="1" parent="1">
          <mxGeometry x="1060" y="425" width="160" height="120" as="geometry" />
        </mxCell>
        <mxCell id="_Saf9lAGoDOqikP1jEev-72" value="수강신청번호(AK)&lt;br&gt;&lt;font color=&quot;#ff6666&quot;&gt;학번(FK,PK)&lt;br&gt;과목코드(FK,PK)&lt;/font&gt;&lt;br&gt;수강신청일" style="align=left;strokeColor=none;fillColor=none;spacingLeft=4;fontSize=12;verticalAlign=top;resizable=0;rotatable=0;part=1;html=1;" vertex="1" parent="_Saf9lAGoDOqikP1jEev-71">
          <mxGeometry y="50" width="160" height="70" as="geometry" />
        </mxCell>
        <mxCell id="_Saf9lAGoDOqikP1jEev-76" value="교수" style="swimlane;childLayout=stackLayout;horizontal=1;startSize=50;horizontalStack=0;rounded=1;fontSize=14;fontStyle=0;strokeWidth=2;resizeParent=0;resizeLast=1;shadow=0;dashed=0;align=center;arcSize=4;whiteSpace=wrap;html=1;" vertex="1" parent="1">
          <mxGeometry x="1050" y="40" width="160" height="120" as="geometry" />
        </mxCell>
        <mxCell id="_Saf9lAGoDOqikP1jEev-77" value="교수코드(PK)&lt;br&gt;교수이름&lt;br&gt;&lt;font color=&quot;#ff6666&quot;&gt;학과코드(FK)&lt;/font&gt;" style="align=left;strokeColor=none;fillColor=none;spacingLeft=4;fontSize=12;verticalAlign=top;resizable=0;rotatable=0;part=1;html=1;" vertex="1" parent="_Saf9lAGoDOqikP1jEev-76">
          <mxGeometry y="50" width="160" height="70" as="geometry" />
        </mxCell>
        <mxCell id="_Saf9lAGoDOqikP1jEev-79" value="" style="edgeStyle=entityRelationEdgeStyle;fontSize=12;html=1;endArrow=ERoneToMany;startArrow=ERmandOne;rounded=0;entryX=1.013;entryY=0.157;entryDx=0;entryDy=0;entryPerimeter=0;exitX=-0.019;exitY=0.125;exitDx=0;exitDy=0;exitPerimeter=0;" edge="1" parent="1" source="_Saf9lAGoDOqikP1jEev-64" target="_Saf9lAGoDOqikP1jEev-77">
          <mxGeometry width="100" height="100" relative="1" as="geometry">
            <mxPoint x="1279" y="90" as="sourcePoint" />
            <mxPoint x="1090" y="360" as="targetPoint" />
            <Array as="points">
              <mxPoint x="1180" y="320" />
            </Array>
          </mxGeometry>
        </mxCell>
        <mxCell id="_Saf9lAGoDOqikP1jEev-80" value="" style="edgeStyle=entityRelationEdgeStyle;fontSize=12;html=1;endArrow=ERoneToMany;startArrow=ERmandOne;rounded=0;entryX=1;entryY=0.16;entryDx=0;entryDy=0;exitX=0;exitY=0.057;exitDx=0;exitDy=0;exitPerimeter=0;entryPerimeter=0;" edge="1" parent="1" source="_Saf9lAGoDOqikP1jEev-77" target="_Saf9lAGoDOqikP1jEev-67">
          <mxGeometry width="100" height="100" relative="1" as="geometry">
            <mxPoint x="880" y="100" as="sourcePoint" />
            <mxPoint x="1010" y="180" as="targetPoint" />
            <Array as="points">
              <mxPoint x="850" y="280" />
            </Array>
          </mxGeometry>
        </mxCell>
        <mxCell id="_Saf9lAGoDOqikP1jEev-81" value="" style="edgeStyle=entityRelationEdgeStyle;fontSize=12;html=1;endArrow=ERoneToMany;startArrow=ERmandOne;rounded=0;exitX=1;exitY=0;exitDx=0;exitDy=0;" edge="1" parent="1" source="_Saf9lAGoDOqikP1jEev-65" target="_Saf9lAGoDOqikP1jEev-70">
          <mxGeometry width="100" height="100" relative="1" as="geometry">
            <mxPoint x="1287" y="65" as="sourcePoint" />
            <mxPoint x="1520" y="390" as="targetPoint" />
            <Array as="points">
              <mxPoint x="1190" y="330" />
            </Array>
          </mxGeometry>
        </mxCell>
        <mxCell id="_Saf9lAGoDOqikP1jEev-82" value="" style="edgeStyle=entityRelationEdgeStyle;fontSize=12;html=1;endArrow=ERoneToMany;startArrow=ERmandOne;rounded=0;entryX=0;entryY=0.25;entryDx=0;entryDy=0;exitX=1;exitY=0.5;exitDx=0;exitDy=0;" edge="1" parent="1" source="_Saf9lAGoDOqikP1jEev-68" target="_Saf9lAGoDOqikP1jEev-72">
          <mxGeometry width="100" height="100" relative="1" as="geometry">
            <mxPoint x="1040" y="500" as="sourcePoint" />
            <mxPoint x="953" y="387" as="targetPoint" />
          </mxGeometry>
        </mxCell>
        <mxCell id="_Saf9lAGoDOqikP1jEev-83" value="" style="edgeStyle=entityRelationEdgeStyle;fontSize=12;html=1;endArrow=ERoneToMany;startArrow=ERmandOne;rounded=0;entryX=1;entryY=0.5;entryDx=0;entryDy=0;exitX=0;exitY=0.25;exitDx=0;exitDy=0;" edge="1" parent="1" source="_Saf9lAGoDOqikP1jEev-70" target="_Saf9lAGoDOqikP1jEev-72">
          <mxGeometry width="100" height="100" relative="1" as="geometry">
            <mxPoint x="1360" y="490" as="sourcePoint" />
            <mxPoint x="963" y="397" as="targetPoint" />
          </mxGeometry>
        </mxCell>
      </root>
    </mxGraphModel>
  </diagram>
</mxfile>
